<svg xmlns="http://www.w3.org/2000/svg" viewBox="0 0 366.2 52.66"><defs><style>.cls-1,.cls-2,.cls-5{fill:#fff;}.cls-1,.cls-3{stroke:#1d1d1b;}.cls-1,.cls-3,.cls-4{stroke-miterlimit:10;}.cls-3,.cls-4{fill:#e1226b;}.cls-4{stroke:#fff;stroke-width:5px;}.cls-5{font-size:10.62px;font-family:Caveat-Bold, Caveat;font-weight:700;}.cls-6{letter-spacing:-0.03em;}</style></defs><g id="Calque_2" data-name="Calque 2"><g id="Calque_1-2" data-name="Calque 1"><path class="cls-1" d="M352.92,49.31c5.18.11,16.3-8.62,11.68-14.42a4.59,4.59,0,0,0-3.6-2l-45.92,1.72-28,1-5.09.19-21.55.81c-.15,0-.2.22-.09.33l17.15,15.17a.14.14,0,0,0,.1,0l67.83-2.57,3.87-.15,3.59-.13"/><polygon class="cls-1" points="294.49 3.88 322.73 34.29 302.92 35.03 290.44 6.6 294.49 3.88"/><polygon class="cls-1" points="259.5 35.02 273.59 34.59 258.39 18.5 253.58 18.76 259.5 35.02"/><rect class="cls-1" x="323.48" y="40.62" width="2.98" height="3.57"/><rect class="cls-1" x="318.78" y="40.62" width="2.98" height="3.57"/><rect class="cls-1" x="313.45" y="40.62" width="2.98" height="3.57"/><rect class="cls-1" x="309.06" y="40.62" width="2.98" height="3.57"/><rect class="cls-1" x="304.11" y="40.62" width="2.98" height="3.57"/><rect class="cls-1" x="298.78" y="40.62" width="2.98" height="3.57"/><rect class="cls-1" x="293.7" y="40.62" width="2.98" height="3.57"/><rect class="cls-1" x="287.94" y="40.62" width="2.98" height="3.57"/><rect class="cls-1" x="327.79" y="40.62" width="2.98" height="3.57"/><rect class="cls-1" x="332.36" y="40.62" width="2.98" height="3.57"/><rect class="cls-1" x="337.44" y="40.62" width="2.98" height="3.57"/><rect class="cls-1" x="342.26" y="40.62" width="2.98" height="3.57"/><rect class="cls-1" x="346.58" y="40.62" width="2.98" height="3.57"/><path class="cls-2" d="M253.15,20.71a256.08,256.08,0,0,0-35.36-5.32A152,152,0,0,0,199.94,15c-1.49.06-3,.09-4.46.25s-3,.21-4.43.42l-4.39.65-4.48.73a318,318,0,0,1-36,2.83q-9,.26-18,.23c-3,0-6,0-9-.12s-6-.11-9-.49c3,.29,6,.21,9,.24s6-.06,9-.13c6-.14,12-.4,18-.73A315.79,315.79,0,0,0,181.85,15l4.39-.85,4.5-.79c1.51-.26,3-.37,4.53-.56s3-.28,4.54-.37A157.37,157.37,0,0,1,218,12.39a259.35,259.35,0,0,1,36,4.42Z"/><polygon class="cls-3" points="150.77 34.24 5.94 34.24 5.94 0.5 150.11 0.5 177.63 17.37 150.77 34.24"/><ellipse class="cls-4" cx="160.79" cy="17.37" rx="4.1" ry="4.22"/><text class="cls-5" transform="translate(60.03 14.33) scale(1.1 1)"><tspan class="cls-6">V</tspan><tspan x="4.89" y="0">egas Box</tspan><tspan class="cls-6" x="-45.76" y="12.75">P</tspan><tspan x="-41.11" y="12.75">our un déménagement sûr et léger!</tspan></text></g></g></svg>