<svg xmlns="http://www.w3.org/2000/svg" xmlns:xlink="http://www.w3.org/1999/xlink" viewBox="0 0 2921.78 2177.01"><defs><style>.cls-1{isolation:isolate;}.cls-2{fill:url(#linear-gradient);}.cls-3{fill:#312783;}.cls-29,.cls-3,.cls-37{stroke:#fff;}.cls-29,.cls-3,.cls-31,.cls-32,.cls-33,.cls-37,.cls-41,.cls-50,.cls-51{stroke-miterlimit:10;}.cls-3,.cls-31{stroke-width:4px;}.cls-4{fill:#070711;}.cls-10,.cls-36,.cls-4{opacity:0.32;}.cls-5{fill:#3e2813;}.cls-6{fill:url(#Dégradé_sans_nom_41);}.cls-7{fill:url(#Dégradé_sans_nom_41-2);}.cls-8{fill:url(#Dégradé_sans_nom_41-3);}.cls-9{fill:#030305;opacity:0.57;}.cls-10,.cls-9{mix-blend-mode:luminosity;}.cls-10,.cls-40,.cls-51{fill:#fff;}.cls-11{fill:#ece327;}.cls-12,.cls-38,.cls-50{fill:#1d1d1b;}.cls-13{fill:url(#radial-gradient);}.cls-14{fill:url(#radial-gradient-2);}.cls-15{fill:url(#radial-gradient-3);}.cls-16{fill:url(#radial-gradient-4);}.cls-17{fill:url(#radial-gradient-5);}.cls-18{fill:url(#radial-gradient-6);}.cls-19{fill:url(#radial-gradient-7);}.cls-20{fill:url(#radial-gradient-8);}.cls-21{fill:url(#radial-gradient-9);}.cls-22{fill:url(#radial-gradient-10);}.cls-23{fill:url(#radial-gradient-11);}.cls-24{fill:url(#radial-gradient-12);}.cls-25{fill:url(#radial-gradient-13);}.cls-26{fill:url(#radial-gradient-14);}.cls-27,.cls-37{fill:#eb567c;}.cls-28{fill:#c64b74;}.cls-29,.cls-34{fill:#b34262;}.cls-30{fill:#575756;}.cls-31{stroke:#b44263;fill:url(#Dégradé_sans_nom_13);}.cls-32,.cls-33{stroke:#eb567c;}.cls-32,.cls-33,.cls-37{stroke-width:6px;}.cls-32{fill:url(#Dégradé_sans_nom_13-2);}.cls-33{fill:url(#Dégradé_sans_nom_13-3);}.cls-35,.cls-36{fill:#f4f4f4;}.cls-38{font-size:30.35px;font-family:PalatinoLinotype-Roman, Palatino Linotype;}.cls-39{fill:#282828;}.cls-41{fill:#e1226b;}.cls-41,.cls-50,.cls-51{stroke:#1d1d1b;}.cls-42{fill:url(#linear-gradient-2);}.cls-43{fill:url(#linear-gradient-3);}.cls-44{fill:url(#linear-gradient-4);}.cls-45{fill:#826153;}.cls-46{fill:#563b25;}.cls-47{fill:#755342;}.cls-48{fill:#432911;}.cls-49{fill:#9b7d72;}</style><linearGradient id="linear-gradient" x1="1442.87" y1="2177.01" x2="1442.87" gradientUnits="userSpaceOnUse"><stop offset="0" stop-color="#324d94"/><stop offset="1" stop-color="#060524"/></linearGradient><linearGradient id="Dégradé_sans_nom_41" x1="574.82" y1="1782.28" x2="741.88" y2="1782.28" gradientUnits="userSpaceOnUse"><stop offset="0" stop-color="#089439"/><stop offset="1" stop-color="#162918"/></linearGradient><linearGradient id="Dégradé_sans_nom_41-2" x1="53.75" y1="1723.22" x2="258.19" y2="1723.22" xlink:href="#Dégradé_sans_nom_41"/><linearGradient id="Dégradé_sans_nom_41-3" x1="174.89" y1="1666.69" x2="584.01" y2="1666.69" xlink:href="#Dégradé_sans_nom_41"/><radialGradient id="radial-gradient" cx="-47879.61" cy="-67036.88" fx="-47866.61335537318" fy="-67013.25549965804" r="213.19" gradientTransform="translate(2695.94 1533.1) scale(0.04 0.02)" gradientUnits="userSpaceOnUse"><stop offset="0.36" stop-color="#fff"/><stop offset="0.65" stop-color="#f0eff4" stop-opacity="0.92"/><stop offset="1" stop-color="#26285b" stop-opacity="0.8"/></radialGradient><radialGradient id="radial-gradient-2" cx="-52675.91" cy="-66201.58" fx="-52662.91682733364" fy="-66177.95417449913" r="213.19" xlink:href="#radial-gradient"/><radialGradient id="radial-gradient-3" cx="-53901.37" cy="-59725.99" fx="-53888.3722416116" fy="-59702.3682915559" r="213.19" xlink:href="#radial-gradient"/><radialGradient id="radial-gradient-4" cx="-45485.51" cy="-62063.01" fx="-45472.5119599062" fy="-62039.38812152324" r="213.19" xlink:href="#radial-gradient"/><radialGradient id="radial-gradient-5" cx="-42224.88" cy="-65556.48" fx="-42211.88154869093" fy="-65532.8545651241" r="213.19" xlink:href="#radial-gradient"/><radialGradient id="radial-gradient-6" cx="-9781.75" cy="-67419.55" fx="-9768.750435814365" fy="-67395.9265952118" r="213.19" xlink:href="#radial-gradient"/><radialGradient id="radial-gradient-7" cx="-14578.05" cy="-66584.25" fx="-14565.053907774784" fy="-66560.62527005286" r="213.19" xlink:href="#radial-gradient"/><radialGradient id="radial-gradient-8" cx="-17962.22" cy="-62230.65" fx="-17949.225936361006" fy="-62207.026013952054" r="213.19" xlink:href="#radial-gradient"/><radialGradient id="radial-gradient-9" cx="-33791.07" cy="-62063.01" fx="-33778.07141083048" fy="-62039.38812152323" r="213.19" xlink:href="#radial-gradient"/><radialGradient id="radial-gradient-10" cx="-35565.22" cy="-66584.25" fx="-35552.22213171944" fy="-66560.62527005291" r="213.19" xlink:href="#radial-gradient"/><radialGradient id="radial-gradient-11" cx="-21869.39" cy="-62660.72" fx="-21856.39486821891" fy="-62637.09242020203" r="213.19" xlink:href="#radial-gradient"/><radialGradient id="radial-gradient-12" cx="-30763.28" cy="-66799.28" fx="-30750.28741893235" fy="-66775.65847317786" r="213.19" xlink:href="#radial-gradient"/><radialGradient id="radial-gradient-13" cx="-7387.64" cy="-62445.68" fx="-7374.649040347797" fy="-62422.059217076996" r="213.19" xlink:href="#radial-gradient"/><radialGradient id="radial-gradient-14" cx="-4127.01" cy="-65939.15" fx="-4114.018629132334" fy="-65915.52566067783" r="213.19" xlink:href="#radial-gradient"/><linearGradient id="Dégradé_sans_nom_13" x1="2441.78" y1="1640.32" x2="2441.78" y2="1804.28" gradientUnits="userSpaceOnUse"><stop offset="0" stop-color="#2581c4"/><stop offset="1" stop-color="#fff"/></linearGradient><linearGradient id="Dégradé_sans_nom_13-2" x1="2677.39" y1="1697.9" x2="2677.39" y2="1871" xlink:href="#Dégradé_sans_nom_13"/><linearGradient id="Dégradé_sans_nom_13-3" x1="2785.07" y1="1697.9" x2="2785.07" y2="1871" xlink:href="#Dégradé_sans_nom_13"/><linearGradient id="linear-gradient-2" x1="738.99" y1="373.5" x2="780.79" y2="373.5" gradientTransform="translate(437.51 -409.45) rotate(41.45)" gradientUnits="userSpaceOnUse"><stop offset="0" stop-color="#b17f4a"/><stop offset="0.4" stop-color="#432911"/></linearGradient><linearGradient id="linear-gradient-3" x1="824.31" y1="373.09" x2="866.11" y2="373.09" gradientTransform="translate(565.42 -507.42) rotate(48.55)" xlink:href="#linear-gradient-2"/><linearGradient id="linear-gradient-4" x1="801.14" y1="404.9" x2="801.14" y2="298.07" gradientTransform="matrix(1, 0, 0, 1, 0, 0)" xlink:href="#linear-gradient-2"/></defs><g class="cls-1"><g id="Calque_1" data-name="Calque 1"><path class="cls-2" d="M2897.56,1261.25c.07,2,.51,4,0,5s-2.3,0-3.45,0c1.16-2.77,2.31-4.15,3.47-5,0-.18,0-.36,0-.54.08.15.16.27.24.4l0,0V0H-12.07V2177H2897.81V1261.15l0,0Z" transform="translate(19.11)"/><path class="cls-3" d="M78.26,1675.05" transform="translate(19.11)"/><path class="cls-4" d="M-16.42,1968.24c0-13.78,0-27.63.71-41.1,0-4.41,2.3-7.72,2.3-12.14q.23-21.42.35-42.85c-.79,3.8-2.65,6.88-2.65,10.86C-16.52,1911.71-16.75,1939.87-16.42,1968.24Z" transform="translate(19.11)"/><path class="cls-4" d="M-16.29,1991.13v0c0,2.22,0,4.44,0,6.64C-16.29,1995.55-15.71,1993.34-16.29,1991.13Z" transform="translate(19.11)"/><path class="cls-4" d="M-10,1584c0,6.62-2.29,13.24-2.29,19.86-1,89.43-.28,178.86-.8,268.29.09-.42.16-.84.22-1.28.58-11,1.73-23.17,1.73-32,4-135.32,2.37-270.65,1.86-406C-9.22,1483.35-9.31,1533.85-10,1584Z" transform="translate(19.11)"/><path class="cls-4" d="M2900.15,1998.69h0c-1.06-170.4-.65-340.79-.58-511.19-2.05.7-3.19,5.67-5.46,7.25-1.22,2.48-2.71,3-4,1.45l-.22.14c.08,1.39.5,2.72,0,3.42s-2.29,0-3.44,0a8.33,8.33,0,0,1,3.46-3.45c0-.13,0-.25,0-.38l.24.27a30.55,30.55,0,0,1,3.2-1,2.73,2.73,0,0,0,.84-.41,26.05,26.05,0,0,0,2-8,113.76,113.76,0,0,0,.69-16.59c-59.79-48.23-131.82-79.74-214.94-79.74-112,0-219.92,42.8-307.51,104.32-94-38-197.24-62.06-301.42-62.06-72.75,0-144.24,9.7-211.93,26.45-144.49-88.47-323.83-153.26-505.52-153.26-195.27,0-382.72,61.75-526.81,146.47-150.63-46.21-279.16-76-347.4-76-129,0-328.12,93.21-489.95,203q0,18.11.07,36.26c.55,94,2.26,188-2,282,0,6.13-1.23,14.56-1.84,22.23a6.88,6.88,0,0,1-.24.89q-.13,14.88-.37,29.76c0,3.07-2.46,5.37-2.46,8.43-.72,9.36-.81,19-.76,28.55.15,8.33.39,16.68.76,25.1h0c-.37-8.42-.61-16.77-.76-25.1,0,5.33.1,10.64.13,15.89h0c.61,1.54,0,3.07,0,4.6,0-1.53,0-3.07,0-4.61-.63-.74-2.44,0-2.44,0a13.75,13.75,0,0,1-.56-3.43q0,10,.07,20c169.27,5.74,167.3,16,461.42-5.32,99.93-7.23,336.09-1.38,582.74-1.11,102.53,12,215.09,17.54,330.39,17.54,155.71,0,309.69-1.83,441.49-13.79,85.89,9.41,179.81,13.79,276,13.79,168,0,333.57-2.4,461.62-21.05,47.29,4.72,96.89,7,147.31,7,68.8,0,141.26,6.09,209.19,9.57,6.41.33,11.5-7.14,10.66-15.64C2901.32,2006.46,2900.81,2002.22,2900.15,1998.69Z" transform="translate(19.11)"/><path class="cls-4" d="M-9.25,1432.9q0-26.12-.07-52.21l-.06.06Q-9.36,1406.84-9.25,1432.9Z" transform="translate(19.11)"/><polygon class="cls-5" points="678.31 1932.19 644.75 1932.19 644.75 1869.57 644.75 1824.99 678.31 1824.99 678.31 1932.19"/><polygon class="cls-6" points="574.82 1873.65 741.88 1873.65 661.53 1690.91 574.82 1873.65"/><polygon class="cls-5" points="180.4 1942.83 139.33 1942.83 139.33 1851.09 139.33 1785.79 180.4 1785.79 180.4 1942.83"/><polygon class="cls-7" points="53.75 1857.08 258.19 1857.08 159.86 1589.37 53.75 1857.08"/><polygon class="cls-5" points="428.33 1956.25 346.13 1956.25 346.13 1835.29 346.13 1749.19 428.33 1749.19 428.33 1956.25"/><polygon class="cls-8" points="174.89 1843.18 584.01 1843.18 387.23 1490.19 174.89 1843.18"/><path class="cls-9" d="M1104.37,243.26c0-16-17-29-37.91-29a46.68,46.68,0,0,0-19.92,4.32c-8.08-9.13-21.75-15.13-37.26-15.13a56.55,56.55,0,0,0-18.85,3.17c-9.91-12.23-27.61-20.37-47.81-20.37-25.72,0-47.41,13.21-54.09,31.26-.7,0-1.41-.06-2.12-.06-19.78,0-35.82,12.27-35.82,27.4s16,27.4,35.82,27.4a46.07,46.07,0,0,0,6.16-.41h42.27a74.12,74.12,0,0,0,15.57,0h51.91a59.28,59.28,0,0,0,13.92,0h43.88a49.22,49.22,0,0,0,12.68,0h0C1090.74,269.51,1104.37,257.6,1104.37,243.26Z" transform="translate(19.11)"/><path class="cls-9" d="M2435.42,204.29c0-13.37-13.87-24.2-31-24.2a37.48,37.48,0,0,0-16.28,3.61c-6.6-7.62-17.78-12.63-30.45-12.63a45.41,45.41,0,0,0-15.4,2.64c-8.11-10.2-22.57-17-39.07-17-21,0-38.75,11-44.21,26.09-.57,0-1.15-.05-1.73-.05-16.17,0-29.28,10.24-29.28,22.87s13.11,22.87,29.28,22.87a37.82,37.82,0,0,0,5-.35h34.55a58,58,0,0,0,12.72,0H2352a46.43,46.43,0,0,0,11.38,0h35.86a38.58,38.58,0,0,0,10.37,0h0C2424.28,226.2,2435.42,216.26,2435.42,204.29Z" transform="translate(19.11)"/><path class="cls-10" d="M2766.25,254.25c0-28.58-22.16-51.76-49.49-51.76a47.61,47.61,0,0,0-26,7.72c-10.56-16.3-28.41-27-48.65-27a56.35,56.35,0,0,0-24.61,5.65c-12.94-21.82-36.05-36.35-62.4-36.35-33.59,0-61.9,23.59-70.62,55.79-.92-.06-1.84-.09-2.77-.09-25.82,0-46.76,21.89-46.76,48.9s20.94,48.9,46.76,48.9a45.36,45.36,0,0,0,8-.73H2545a71,71,0,0,0,20.31,0H2633a57,57,0,0,0,18.18,0h57.27a47.38,47.38,0,0,0,16.57,0h0C2748.46,301.11,2766.25,279.86,2766.25,254.25Z" transform="translate(19.11)"/><path class="cls-10" d="M1892.12,173.44c0-17.73-13.81-32.11-30.85-32.11a29.75,29.75,0,0,0-16.2,4.79,36.18,36.18,0,0,0-30.32-16.77,35.21,35.21,0,0,0-15.34,3.51c-8.06-13.54-22.47-22.56-38.89-22.56-20.93,0-38.58,14.64-44,34.62-.57,0-1.14,0-1.72,0-16.1,0-29.15,13.58-29.15,30.34s13,30.35,29.15,30.35a27.62,27.62,0,0,0,5-.46h34.39a43.85,43.85,0,0,0,12.67,0h42.23a35.17,35.17,0,0,0,11.34,0h35.69a29.23,29.23,0,0,0,10.33,0h0C1881,202.52,1892.12,189.34,1892.12,173.44Z" transform="translate(19.11)"/><path class="cls-9" d="M333.25,322.8c0-13.1-11.52-23.72-25.73-23.72A27.25,27.25,0,0,0,294,302.61a31.27,31.27,0,0,0-25.29-12.38,32.62,32.62,0,0,0-12.8,2.59c-6.73-10-18.74-16.66-32.45-16.66-17.46,0-32.18,10.81-36.71,25.57-.48,0-1,0-1.44,0-13.43,0-24.32,10-24.32,22.41s10.89,22.42,24.32,22.42a26.2,26.2,0,0,0,4.18-.34h28.69a41.25,41.25,0,0,0,10.57,0H264a33.07,33.07,0,0,0,9.46,0h29.77a27.49,27.49,0,0,0,8.62,0h0C324,344.27,333.25,334.53,333.25,322.8Z" transform="translate(19.11)"/><path class="cls-11" d="M1505.14,256.08c-42.82-1.09-75.62-31.9-73.25-68.82,1.71-26.62,21.25-49.15,48.08-59.23a96.47,96.47,0,0,0-13.75-1.34c-48-1.23-89.24,33.09-92,76.65s33.88,79.86,81.91,81.09c29,.74,55.48-11.46,72.55-30.83A90,90,0,0,1,1505.14,256.08Z" transform="translate(19.11)"/><path class="cls-12" d="M366.36,175.4c.6,0,1.62-.19,1.91-.81s-.24-.91-.8-.91-1.62.19-1.91.81.23.91.8.91Z" transform="translate(19.11)"/><path class="cls-12" d="M506.22,220.17c.54,0,1.64-.22,1.93-.74s-.26-.64-.73-.64-1.64.22-1.92.74.26.64.72.64Z" transform="translate(19.11)"/><path class="cls-13" d="M555.57,163.92c.95-.25,1.57-.66,1.57-1.12a.63.63,0,0,0-.13-.36l5.73-1.15-6.24.74a6.81,6.81,0,0,0-2.68-.6l-.52-3.5-.55,3.5a6.57,6.57,0,0,0-2.63.61l-6.29-.76,5.78,1.16a.61.61,0,0,0-.14.36c0,.45.6.85,1.52,1.1l-3.57,2.81L552,164.1a9.52,9.52,0,0,0,1.34.09,10.34,10.34,0,0,0,1.28-.08l4.52,2.61Z" transform="translate(19.11)"/><path class="cls-14" d="M340.94,181c.95-.25,1.56-.66,1.56-1.12a.63.63,0,0,0-.13-.36l5.73-1.15-6.24.74a6.81,6.81,0,0,0-2.68-.6l-.52-3.5-.55,3.5a6.57,6.57,0,0,0-2.63.61l-6.29-.76,5.78,1.16a.61.61,0,0,0-.14.36c0,.45.6.85,1.52,1.11l-3.57,2.8,4.55-2.61a9.52,9.52,0,0,0,1.34.09,10.34,10.34,0,0,0,1.28-.08l4.52,2.61Z" transform="translate(19.11)"/><path class="cls-15" d="M286.1,313.41c.95-.25,1.56-.66,1.56-1.11a.66.66,0,0,0-.13-.37l5.73-1.14-6.24.74a6.79,6.79,0,0,0-2.68-.61l-.52-3.5-.55,3.51a6.42,6.42,0,0,0-2.63.6l-6.29-.76,5.78,1.16a.61.61,0,0,0-.14.37c0,.45.6.85,1.52,1.1l-3.57,2.81,4.55-2.62a9.52,9.52,0,0,0,1.34.09,10.34,10.34,0,0,0,1.28-.08l4.52,2.62Z" transform="translate(19.11)"/><path class="cls-16" d="M662.71,265.62c.95-.25,1.57-.65,1.57-1.11a.61.61,0,0,0-.14-.37l5.74-1.14-6.25.74a6.59,6.59,0,0,0-2.67-.6l-.52-3.5-.55,3.5a6.64,6.64,0,0,0-2.64.6L651,263l5.77,1.16a.61.61,0,0,0-.13.36c0,.45.6.85,1.52,1.1l-3.57,2.81,4.55-2.61a11.23,11.23,0,0,0,1.34.08,10.47,10.47,0,0,0,1.28-.08l4.52,2.62Z" transform="translate(19.11)"/><path class="cls-17" d="M808.63,194.19c1-.25,1.57-.66,1.57-1.12a.58.58,0,0,0-.14-.36l5.74-1.14-6.25.74a6.62,6.62,0,0,0-2.68-.61l-.52-3.5-.55,3.5a6.61,6.61,0,0,0-2.63.61l-6.29-.76,5.78,1.16a.59.59,0,0,0-.13.36c0,.45.59.85,1.51,1.11L800.47,197l4.55-2.62a9.52,9.52,0,0,0,1.34.09,10.34,10.34,0,0,0,1.28-.08l4.52,2.61Z" transform="translate(19.11)"/><path class="cls-18" d="M2260.49,156.09c1-.25,1.57-.65,1.57-1.11a.61.61,0,0,0-.14-.37l5.74-1.14-6.25.74a6.64,6.64,0,0,0-2.68-.6l-.52-3.51-.55,3.51a6.63,6.63,0,0,0-2.63.6l-6.29-.76,5.78,1.17a.55.55,0,0,0-.13.36c0,.45.59.85,1.51,1.1l-3.57,2.81,4.55-2.61a11.36,11.36,0,0,0,1.34.08,10.34,10.34,0,0,0,1.28-.08l4.52,2.62Z" transform="translate(19.11)"/><path class="cls-19" d="M2045.85,173.17c1-.25,1.57-.65,1.57-1.11a.61.61,0,0,0-.14-.37l5.74-1.14-6.25.74a6.63,6.63,0,0,0-2.67-.6l-.53-3.5-.55,3.5a6.63,6.63,0,0,0-2.63.6l-6.29-.75,5.78,1.16a.55.55,0,0,0-.13.36c0,.45.59.85,1.51,1.1L2037.7,176l4.55-2.61a11.06,11.06,0,0,0,1.33.08,10.34,10.34,0,0,0,1.28-.08l4.52,2.62Z" transform="translate(19.11)"/><path class="cls-20" d="M1894.4,262.2c.95-.26,1.57-.66,1.57-1.12a.61.61,0,0,0-.13-.36l5.73-1.15-6.24.74a6.64,6.64,0,0,0-2.68-.6l-.52-3.5-.55,3.5a6.58,6.58,0,0,0-2.63.6l-6.29-.75,5.78,1.16a.58.58,0,0,0-.14.36c0,.45.6.85,1.52,1.1l-3.57,2.81,4.55-2.61a11.36,11.36,0,0,0,1.34.08,10.4,10.4,0,0,0,1.28-.07l4.52,2.61Z" transform="translate(19.11)"/><path class="cls-21" d="M1186.05,265.62c1-.25,1.57-.65,1.57-1.11a.61.61,0,0,0-.14-.37l5.74-1.14-6.25.74a6.63,6.63,0,0,0-2.67-.6l-.53-3.5-.55,3.5a6.63,6.63,0,0,0-2.63.6l-6.29-.75,5.78,1.16a.55.55,0,0,0-.13.36c0,.45.59.85,1.51,1.1l-3.56,2.81,4.55-2.61a11.06,11.06,0,0,0,1.33.08,10.34,10.34,0,0,0,1.28-.08l4.52,2.62Z" transform="translate(19.11)"/><path class="cls-22" d="M1106.65,173.17c.95-.25,1.57-.65,1.57-1.11a.66.66,0,0,0-.13-.37l5.73-1.14-6.24.74a6.64,6.64,0,0,0-2.68-.6l-.52-3.5-.55,3.5a6.58,6.58,0,0,0-2.63.6l-6.29-.75,5.78,1.16a.56.56,0,0,0-.14.36c0,.45.6.85,1.52,1.1L1098.5,176l4.55-2.61a11.36,11.36,0,0,0,1.34.08,10.34,10.34,0,0,0,1.28-.08l4.52,2.62Z" transform="translate(19.11)"/><path class="cls-23" d="M1719.56,253.4c1-.25,1.56-.66,1.56-1.11a.66.66,0,0,0-.13-.37l5.73-1.14-6.24.74a6.64,6.64,0,0,0-2.68-.6l-.52-3.51-.55,3.51a6.58,6.58,0,0,0-2.63.6l-6.29-.76,5.78,1.17a.56.56,0,0,0-.14.36c0,.45.6.85,1.52,1.1l-3.57,2.81,4.55-2.62a9.52,9.52,0,0,0,1.34.09,10.34,10.34,0,0,0,1.28-.08l4.52,2.62Z" transform="translate(19.11)"/><path class="cls-24" d="M1321.55,168.78c1-.25,1.56-.66,1.56-1.12a.61.61,0,0,0-.13-.36l5.73-1.15-6.24.74a6.64,6.64,0,0,0-2.68-.6l-.52-3.5-.55,3.5a6.76,6.76,0,0,0-2.63.6l-6.29-.75,5.78,1.16a.61.61,0,0,0-.14.36c0,.45.6.85,1.52,1.1l-3.57,2.81,4.55-2.61a11.3,11.3,0,0,0,1.34.09,10.34,10.34,0,0,0,1.28-.08l4.52,2.61Z" transform="translate(19.11)"/><path class="cls-25" d="M2367.63,257.8c.95-.25,1.56-.66,1.56-1.12a.57.57,0,0,0-.13-.36l5.73-1.14-6.24.74a6.62,6.62,0,0,0-2.68-.61l-.52-3.5-.55,3.5a6.57,6.57,0,0,0-2.63.61l-6.29-.76,5.78,1.16a.59.59,0,0,0-.13.36c0,.45.59.85,1.51,1.11l-3.57,2.81L2364,258a9.52,9.52,0,0,0,1.34.09,10.34,10.34,0,0,0,1.28-.08l4.52,2.61Z" transform="translate(19.11)"/><path class="cls-26" d="M2513.54,186.36c.95-.25,1.57-.65,1.57-1.11a.61.61,0,0,0-.14-.37l5.74-1.14-6.25.74a6.59,6.59,0,0,0-2.67-.6l-.52-3.5-.55,3.5a6.54,6.54,0,0,0-2.63.6l-6.29-.75,5.77,1.16a.61.61,0,0,0-.13.36c0,.45.6.85,1.52,1.1l-3.57,2.81,4.55-2.61a11.23,11.23,0,0,0,1.34.08,10.34,10.34,0,0,0,1.28-.08l4.52,2.62Z" transform="translate(19.11)"/><rect class="cls-27" x="2263.01" y="1559.87" width="594.11" height="343.16"/><rect class="cls-28" x="2263.01" y="1821.81" width="594.11" height="81.21"/><rect class="cls-28" x="2196.86" y="1514.12" width="724.93" height="52.62" rx="10.2"/><rect class="cls-29" x="2620.54" y="1646.43" width="216.64" height="261.94" rx="9.18"/><rect class="cls-30" x="2219.15" y="1903.03" width="681.83" height="28.98"/><rect class="cls-31" x="2289.6" y="1640.32" width="304.36" height="163.97"/><path class="cls-28" d="M2362.2,1478.66h358.19s-10-46-193.48-45.76C2364.66,1433.09,2362.2,1478.66,2362.2,1478.66Z" transform="translate(19.11)"/><rect class="cls-32" x="2637.18" y="1697.9" width="80.41" height="173.1"/><rect class="cls-33" x="2744.87" y="1697.9" width="80.41" height="173.1"/><rect class="cls-34" x="2262.7" y="1516.4" width="54.02" height="106.38" rx="7.14"/><rect class="cls-35" x="2316.72" y="1516.4" width="54.02" height="106.38" rx="7.14"/><rect class="cls-34" x="2370.74" y="1516.4" width="54.02" height="106.38" rx="7.14"/><rect class="cls-35" x="2424.76" y="1516.4" width="54.02" height="106.38" rx="7.14"/><rect class="cls-34" x="2478.78" y="1516.4" width="54.02" height="106.38" rx="7.14"/><rect class="cls-34" x="2584.48" y="1516.4" width="54.02" height="106.38" rx="7.14"/><rect class="cls-34" x="2691.39" y="1516.4" width="54.02" height="106.38" rx="7.14"/><rect class="cls-35" x="2745.41" y="1516.4" width="54.02" height="106.38" rx="7.14"/><rect class="cls-34" x="2799.43" y="1516.4" width="54.02" height="106.38" rx="7.14"/><rect class="cls-35" x="2637.29" y="1516.4" width="54.02" height="106.38" rx="7.14"/><rect class="cls-35" x="2531.03" y="1516.4" width="54.02" height="106.38" rx="7.14"/><rect class="cls-36" x="2262.7" y="1584.15" width="590.75" height="12.11"/><rect class="cls-27" x="2263.01" y="1478.66" width="590.43" height="41.73" rx="7.65"/><polygon class="cls-37" points="2686.42 1516.76 2430.16 1543.97 2421.31 1482.29 2677.58 1455.08 2686.42 1516.76"/><text class="cls-38" transform="matrix(1.15, -0.12, 0.14, 0.99, 2461.32, 1517.31)">Coffee Shop</text><rect class="cls-34" x="2279.85" y="1878.74" width="49.24" height="16.95"/><rect class="cls-34" x="2343.73" y="1878.74" width="49.24" height="16.95"/><rect class="cls-34" x="2411.47" y="1878.74" width="49.24" height="16.95"/><rect class="cls-34" x="2411.47" y="1878.74" width="49.24" height="16.95"/><rect class="cls-34" x="2481.18" y="1877.86" width="49.24" height="16.95"/><rect class="cls-34" x="2550.86" y="1877.86" width="49.24" height="16.95"/><rect class="cls-39" x="7.04" y="1920.2" width="2908.57" height="256.81"/><rect class="cls-40" x="2823.48" y="2021.08" width="93.43" height="46.98"/><rect class="cls-40" x="2471.43" y="2022.79" width="93.43" height="46.98"/><rect class="cls-40" x="2119.37" y="2023.64" width="93.43" height="46.98"/><rect class="cls-40" x="359.09" y="2020.65" width="93.43" height="46.98"/><rect class="cls-40" x="7.04" y="2021.93" width="93.43" height="46.98"/><rect class="cls-40" x="1415.26" y="2020.23" width="93.43" height="46.98"/><rect class="cls-40" x="1767.31" y="2021.51" width="93.43" height="46.98"/><rect class="cls-40" x="1063.2" y="2021.93" width="93.43" height="46.98"/><rect class="cls-40" x="711.15" y="2022.36" width="93.43" height="46.98"/><path class="cls-41" d="M1290.82,613" transform="translate(19.11)"/><path class="cls-9" d="M1762.88,273.09c0-24.33-22.92-44-51.2-44a57.22,57.22,0,0,0-26.89,6.57c-10.92-13.87-29.39-23-50.33-23a68.87,68.87,0,0,0-25.46,4.81c-13.39-18.57-37.3-30.94-64.56-30.94-34.75,0-64,20.08-73.06,47.48-1,0-1.9-.08-2.87-.08-26.71,0-48.37,18.64-48.37,41.62s21.66,41.62,48.37,41.62a56.76,56.76,0,0,0,8.32-.62h57.1a89.39,89.39,0,0,0,21,0h70.1a71.72,71.72,0,0,0,18.82,0h59.25a59.47,59.47,0,0,0,17.13,0h.06C1744.47,313,1762.88,294.88,1762.88,273.09Z" transform="translate(19.11)"/><g id="nuageFlottant"><path class="cls-9" d="M901.49,452.17c0-27.35-27.44-49.52-61.3-49.52A72.1,72.1,0,0,0,808,410c-13.07-15.6-35.18-25.85-60.26-25.85a87,87,0,0,0-30.48,5.41c-16-20.88-44.65-34.79-77.3-34.79-41.6,0-76.67,22.58-87.47,53.39-1.14-.06-2.28-.09-3.43-.09-32,0-57.92,20.95-57.92,46.79s25.93,46.79,57.92,46.79a72.3,72.3,0,0,0,10-.7h68.36a113.48,113.48,0,0,0,25.17,0h83.93A91,91,0,0,0,759,501h70.94a75.47,75.47,0,0,0,20.51,0h.07C879.45,497,901.49,476.68,901.49,452.17Z" transform="translate(19.11)"/><ellipse class="cls-42" cx="759.89" cy="373.5" rx="16.34" ry="25.58" transform="translate(-37.83 596.51) rotate(-41.45)"/><ellipse class="cls-43" cx="845.21" cy="373.09" rx="25.58" ry="16.34" transform="translate(25.2 759.69) rotate(-48.55)"/><path class="cls-44" d="M860.11,340.85c0,23.63-26.4,64-59,64s-59-40.42-59-64,26.41-42.78,59-42.78S860.11,317.22,860.11,340.85Z" transform="translate(19.11)"/><path class="cls-45" d="M758.82,349.77c1.14,2.82,7.12,9.29,13.14,13.69,7.4,5.42,10.24,6.2,18.72,12,10.11,6.89,10.8,12.28,14.42,12.13s3.51-4.81,11.45-12.62c4.63-4.55,6.41-6.15,14.73-12.47a113,113,0,0,0,13.84-12.71" transform="translate(19.11)"/><ellipse class="cls-46" cx="788.81" cy="334.13" rx="33.15" ry="24.32"/><ellipse class="cls-47" cx="788.81" cy="334.13" rx="23.99" ry="17.6"/><ellipse class="cls-46" cx="853.78" cy="334.13" rx="33.15" ry="24.32"/><ellipse class="cls-47" cx="855.23" cy="334.13" rx="23.99" ry="17.6"/><polygon class="cls-48" points="821.34 334.13 810.66 346.99 821.34 362.36 830.6 348.24 821.34 334.13"/><path class="cls-49" d="M824.52,405.6c.65,5.58-.1,10.23-3.34,3.12-.42-.93-.57,2.83-1.71,3-1.76.22-2.74-6.33-3.64-1.25-.51,2.85-1.55-2.17-1.87-3.53-.82-3.43.89-6.5,3.8-6.87A6.46,6.46,0,0,1,824.52,405.6Z" transform="translate(19.11)"/><path class="cls-46" d="M811.45,316.52a22,22,0,0,1,6-8.71c8.68-7.84,24-10.91,36.51-9.19,7.88,1.08,8.5,3.23,15.69,3.88,15.12,1.38,25.47-7.94,27.26-6.49,1.56,1.27-5.11,8.95-15.69,13.65a55,55,0,0,1-15.7,4.18" transform="translate(19.11)"/><path class="cls-46" d="M791.6,316.52a22.12,22.12,0,0,0-6-8.71c-8.68-7.84-24-10.91-36.51-9.19-7.88,1.08-8.51,3.23-15.7,3.88-15.11,1.38-25.47-7.94-27.26-6.49-1.56,1.27,5.11,8.95,15.7,13.65a55,55,0,0,0,15.69,4.18" transform="translate(19.11)"/><path class="cls-49" d="M793.41,407.22c-.66,5.58-2.49,10.07-4,2.66-.2-1-1.23,2.72-2.39,2.72-1.78,0-1.21-6.57-3.29-1.68-1.17,2.76-1-2.32-1-3.7,0-3.48,2.4-6.3,5.36-6.3A5.63,5.63,0,0,1,793.41,407.22Z" transform="translate(19.11)"/><ellipse class="cls-50" cx="856.17" cy="334.13" rx="17.24" ry="12.46"/><ellipse class="cls-51" cx="856.17" cy="340.4" rx="5.92" ry="4.27"/><ellipse class="cls-50" cx="788.81" cy="334.13" rx="17.24" ry="12.46"/><ellipse class="cls-51" cx="788.81" cy="340.4" rx="5.92" ry="4.27"/></g></g></g></svg>