<svg xmlns="http://www.w3.org/2000/svg" viewBox="0 0 760.42 775.64"><defs><style>.cls-1{fill:#444242;}.cls-1,.cls-2,.cls-9{stroke:#1d1d1b;}.cls-1,.cls-13,.cls-2,.cls-3,.cls-9{stroke-miterlimit:10;}.cls-2{fill:#3b2a85;}.cls-3{fill:#5dc5ec;}.cls-13,.cls-3{stroke:#3d3d3d;stroke-width:5px;}.cls-4{font-size:43px;}.cls-4,.cls-8{fill:#ea580c;font-family:CooperBlack, Cooper Black;}.cls-5{letter-spacing:-0.09em;}.cls-6{letter-spacing:0em;}.cls-7{letter-spacing:-0.02em;}.cls-8{font-size:18px;}.cls-9{fill:#753a10;}.cls-10{fill:#188536;}.cls-11{fill:#47c1ee;}.cls-12{fill:#e7e8e8;opacity:0.85;}.cls-13{fill:none;}</style></defs><g id="Calque_2" data-name="Calque 2"><g id="Calque_1-2" data-name="Calque 1"><rect class="cls-1" x="329.3" y="0.5" width="85.51" height="36.23" rx="9.51"/><rect class="cls-1" x="281.84" y="27.31" width="180.43" height="69.57" rx="14.04"/><rect class="cls-2" x="133.11" y="88.18" width="494.2" height="662.32"/><rect class="cls-2" x="626.31" y="88.18" width="42.03" height="662.32"/><rect class="cls-3" x="232.74" y="316.31" width="36.23" height="53.62"/><rect class="cls-3" x="343.37" y="316.31" width="36.23" height="53.62"/><rect class="cls-3" x="454" y="316.31" width="36.23" height="53.62"/><rect class="cls-3" x="577.95" y="316.31" width="36.23" height="53.62"/><rect class="cls-3" x="140.79" y="316.31" width="36.23" height="53.62"/><rect class="cls-3" x="234.85" y="414.07" width="36.23" height="53.62"/><rect class="cls-3" x="345.48" y="414.07" width="36.23" height="53.62"/><rect class="cls-3" x="456.11" y="414.07" width="36.23" height="53.62"/><rect class="cls-3" x="580.06" y="414.07" width="36.23" height="53.62"/><rect class="cls-3" x="142.91" y="414.07" width="36.23" height="53.62"/><rect class="cls-3" x="236.96" y="511.84" width="36.23" height="53.62"/><rect class="cls-3" x="347.59" y="511.84" width="36.23" height="53.62"/><rect class="cls-3" x="458.22" y="511.84" width="36.23" height="53.62"/><rect class="cls-3" x="582.17" y="511.84" width="36.23" height="53.62"/><rect class="cls-3" x="145.02" y="511.84" width="36.23" height="53.62"/><rect class="cls-1" x="291.04" y="621.51" width="177.84" height="153.62"/><rect class="cls-2" x="350.93" y="649.61" width="57.35" height="97.44"/><text class="cls-4" transform="translate(267.53 137.86)"><tspan class="cls-5">V</tspan><tspan x="30.65" y="0">e</tspan><tspan class="cls-6" x="53.46" y="0">g</tspan><tspan x="78.17" y="0">as B</tspan><tspan class="cls-7" x="164.63" y="0">o</tspan><tspan x="189.53" y="0">x</tspan></text><text class="cls-8" transform="translate(342.04 642.23)">ENTRÉE</text><rect class="cls-9" x="699.77" y="661.48" width="13.97" height="89.02" rx="6.99"/><path class="cls-10" d="M657.05,645.75a17.38,17.38,0,0,0,2.7,10c0,.36-.06.72-.07,1.08-.28,7.93,4.62,14.73,11.32,16.4,1.26,7.19,6.82,12.75,13.67,13a12.87,12.87,0,0,0,3.47-.32,13.58,13.58,0,0,0,8.2,3.28,13.29,13.29,0,0,0,7.32-1.86,13.23,13.23,0,0,0,15.59-.1,13.15,13.15,0,0,0,11.42-1.58,12.83,12.83,0,0,0,1.75.19c8,.35,14.74-6.61,15.05-15.53,0-.52,0-1,0-1.53a16.83,16.83,0,0,0,5.41-12,17.75,17.75,0,0,0-1.31-7.36,17.65,17.65,0,0,0,1.41-6.36c.31-8.92-5.93-16.43-13.93-16.78h-.51a13.41,13.41,0,0,0-7.6-2.8,13.16,13.16,0,0,0-5.46.94,13.28,13.28,0,0,0-5.38-1.4c-.24,0-.48,0-.73,0A14.47,14.47,0,0,0,707,614.28c-6.54-.28-12.23,4.31-14.26,10.87a13.57,13.57,0,0,0-8.57-3.59c-5.78-.25-10.9,3.31-13.41,8.67C663.36,630.67,657.34,637.34,657.05,645.75Z"/><rect class="cls-9" x="71.05" y="677.43" width="13.97" height="89.02" rx="6.99"/><path class="cls-10" d="M28.34,661.7a17.49,17.49,0,0,0,2.69,10c0,.35-.06.71-.07,1.07-.27,7.93,4.62,14.74,11.33,16.4,1.26,7.19,6.81,12.75,13.66,13a12.94,12.94,0,0,0,3.48-.31,13.62,13.62,0,0,0,8.19,3.27,13.21,13.21,0,0,0,7.32-1.86,13.23,13.23,0,0,0,15.59-.1,12.88,12.88,0,0,0,3.52.64,13.31,13.31,0,0,0,7.91-2.22,14.19,14.19,0,0,0,1.75.2c8,.34,14.73-6.62,15-15.54,0-.51,0-1,0-1.53a16.84,16.84,0,0,0,5.4-12,17.67,17.67,0,0,0-1.31-7.35,17.75,17.75,0,0,0,1.41-6.37c.31-8.92-5.92-16.43-13.93-16.77h-.51a13.45,13.45,0,0,0-7.6-2.8,13.21,13.21,0,0,0-5.46.94,13.24,13.24,0,0,0-5.37-1.4h-.73a14.5,14.5,0,0,0-12.36-8.81c-6.53-.28-12.22,4.31-14.26,10.87a13.57,13.57,0,0,0-8.57-3.59c-5.78-.25-10.9,3.31-13.41,8.68C34.64,646.61,28.63,653.28,28.34,661.7Z"/><path class="cls-11" d="M618.82,167.91h-477v52.86c1.4,20.76.9,41.08.83,62h3.88c10-3.32,20.08,1,30.12-1-10,2-20.08-2.34-30.12,1h472.3Z"/><path class="cls-12" d="M178.72,167.7l-37.93,40.86c0,17,0,43.2,1.89,65.27L241.19,167.7Z"/><path class="cls-12" d="M252.65,168.2,146.24,282.85c8.45-2.92,16.91-.34,25.36-.55L277.51,168.2Z"/><path class="cls-12" d="M581.7,283.1l37.93-40.86c0-17,0-43.2-1.89-65.27L519.23,283.1Z"/><path class="cls-12" d="M507.77,282.6,614.18,168c-8.45,2.92-16.91.34-25.36.56L482.91,282.6Z"/><rect class="cls-13" x="140.79" y="167.7" width="478.83" height="115.39"/><rect class="cls-1" x="0.5" y="743.25" width="759.42" height="31.88"/></g></g></svg>