<svg xmlns="http://www.w3.org/2000/svg" xmlns:xlink="http://www.w3.org/1999/xlink" viewBox="0 0 230.86 145.27"><defs><style>.cls-1{fill:url(#linear-gradient);}.cls-2{fill:url(#linear-gradient-2);}.cls-3{fill:url(#linear-gradient-3);}.cls-4{fill:#826153;}.cls-5{fill:#563b25;}.cls-6{fill:#755342;}.cls-7{fill:#432911;}.cls-8{fill:#9b7d72;}.cls-9{fill:#1d1d1b;}.cls-10,.cls-9{stroke:#1d1d1b;stroke-miterlimit:10;}.cls-10{fill:#fff;}</style><linearGradient id="linear-gradient" x1="39.97" y1="95.66" x2="90.41" y2="95.66" gradientTransform="translate(76.87 -19.51) rotate(40.06)" gradientUnits="userSpaceOnUse"><stop offset="0" stop-color="#b17f4a"/><stop offset="0.4" stop-color="#432911"/></linearGradient><linearGradient id="linear-gradient-2" x1="142.93" y1="95.15" x2="193.37" y2="95.15" gradientTransform="translate(132.75 -94.78) rotate(49.94)" xlink:href="#linear-gradient"/><linearGradient id="linear-gradient-3" x1="114.97" y1="134.34" x2="114.97" y2="2.73" gradientTransform="matrix(1, 0, 0, 1, 0, 0)" xlink:href="#linear-gradient"/></defs><g id="Calque_2" data-name="Calque 2"><g id="Calque_1-2" data-name="Calque 1"><ellipse class="cls-1" cx="65.19" cy="95.66" rx="19.89" ry="31.24" transform="translate(-46.27 64.4) rotate(-40.06)"/><ellipse class="cls-2" cx="168.15" cy="95.15" rx="31.24" ry="19.89" transform="translate(-12.9 162.61) rotate(-49.94)"/><path class="cls-3" d="M186.14,55.44c0,29.11-31.87,78.9-71.17,78.9S43.79,84.55,43.79,55.44,75.66,2.73,115,2.73,186.14,26.33,186.14,55.44Z"/><path class="cls-4" d="M63.9,66.42c1.37,3.48,8.58,11.44,15.85,16.87C88.69,90,92.11,90.92,102.34,98c12.21,8.5,13,15.13,17.41,14.95s4.24-5.92,13.82-15.55c5.58-5.6,7.73-7.58,17.78-15.36a138,138,0,0,0,16.7-15.66"/><ellipse class="cls-5" cx="77.03" cy="47.15" rx="40.01" ry="29.97"/><ellipse class="cls-6" cx="77.03" cy="47.15" rx="28.95" ry="21.68"/><ellipse class="cls-5" cx="155.44" cy="47.15" rx="40.01" ry="29.97"/><ellipse class="cls-6" cx="157.19" cy="47.15" rx="28.95" ry="21.68"/><polygon class="cls-7" points="116.29 47.15 103.4 62.99 116.29 81.93 127.46 64.54 116.29 47.15"/><path class="cls-8" d="M143.18,135.21c.8,6.87-.11,12.6-4,3.84-.51-1.15-.69,3.48-2.07,3.66-2.12.27-3.3-7.81-4.39-1.55-.62,3.52-1.87-2.66-2.26-4.34-1-4.23,1.07-8,4.59-8.46S142.69,130.94,143.18,135.21Z"/><path class="cls-5" d="M127.41,25.46a27.24,27.24,0,0,1,7.27-10.73c10.48-9.66,29-13.44,44.07-11.32,9.51,1.33,10.26,4,18.94,4.78,18.25,1.69,30.74-9.79,32.9-8,1.88,1.56-6.16,11-18.94,16.82a65.79,65.79,0,0,1-18.94,5.15"/><path class="cls-5" d="M103.45,25.46a27.13,27.13,0,0,0-7.27-10.73C85.7,5.07,67.19,1.29,52.11,3.41c-9.51,1.33-10.26,4-18.94,4.78C14.93,9.88,2.43-1.6.27.19-1.61,1.75,6.44,11.22,19.21,17a65.76,65.76,0,0,0,18.95,5.15"/><path class="cls-8" d="M105.64,137.2c-.79,6.88-3,12.41-4.84,3.28-.24-1.19-1.48,3.35-2.88,3.35-2.15,0-1.47-8.1-4-2.07-1.41,3.4-1.23-2.85-1.23-4.56,0-4.29,2.9-7.76,6.47-7.76A6.89,6.89,0,0,1,105.64,137.2Z"/><ellipse class="cls-9" cx="158.32" cy="47.15" rx="20.81" ry="15.35"/><ellipse class="cls-10" cx="158.32" cy="54.88" rx="7.14" ry="5.27"/><ellipse class="cls-9" cx="77.03" cy="47.15" rx="20.81" ry="15.35"/><ellipse class="cls-10" cx="77.03" cy="54.88" rx="7.14" ry="5.27"/></g></g></svg>